# xmcd CD database file
#
# Track frame offsets:
#	150
#	25390
#	48090
#	72642
#	100740
#	120684
#	136373
#	166280
#
# Disc length: 2541 seconds
#
# Revision: 0
# Processed by: cddbd v1.5.2PL0 Copyright (c) Steve Scherf et al.
# Submitted via: CDex 1.70beta2
#
DISCID=6b09eb08
DTITLE=Jostein Gulbrandsen - Twelve
DYEAR=2007
DGENRE=Jazz
TTITLE0=Sundance
TTITLE1=MB
TTITLE2=Northern Lights
TTITLE3=Twelve
TTITLE4=Watertrain
TTITLE5=Message In A Bottle
TTITLE6=The Ring
TTITLE7=Black November
EXTD=YEAR: 2007
EXTT0=
EXTT1=
EXTT2=
EXTT3=
EXTT4=
EXTT5=
EXTT6=
EXTT7=
PLAYORDER=
